<?xml version="1.0" standalone="no"?>
<!DOCTYPE svg PUBLIC "-//W3C//DTD SVG 20010904//EN"
 "http://www.w3.org/TR/2001/REC-SVG-20010904/DTD/svg10.dtd">
<svg version="1.0" xmlns="http://www.w3.org/2000/svg"
 width="1200.000000pt" height="1200.000000pt" viewBox="0 0 1200.000000 1200.000000"
 preserveAspectRatio="xMidYMid meet">
<metadata>
Created by potrace 1.11, written by Peter Selinger 2001-2013
</metadata>
<g transform="translate(0.000000,1200.000000) scale(0.100000,-0.100000)"
fill="#000000" stroke="none">
<path d="M2618 10120 c-113 -24 -148 -35 -233 -78 -104 -52 -171 -101 -256
-189 -122 -125 -192 -246 -238 -412 l-26 -96 0 -3345 0 -3345 26 -96 c48 -171
128 -306 256 -430 125 -122 246 -192 412 -238 l96 -26 3345 0 3345 0 96 26
c332 92 576 336 668 668 l26 96 0 3355 0 3355 -28 88 c-104 334 -340 565 -666
656 l-96 26 -3320 2 c-3188 2 -3323 1 -3407 -17z m5058 -1420 c162 -26 385
-116 521 -212 501 -352 691 -986 464 -1553 -157 -393 -507 -686 -931 -780
-103 -23 -342 -31 -449 -15 -536 78 -968 480 -1086 1010 -10 43 -19 142 -22
230 -8 247 30 418 140 634 197 387 581 651 1009 696 92 9 259 5 354 -10z
m-3910 -265 c44 -13 82 -48 411 -377 l363 -363 367 367 c203 201 377 368 388
371 62 16 82 16 129 3 55 -16 107 -61 125 -109 16 -41 13 -112 -4 -155 -11
-25 -131 -153 -373 -394 l-357 -358 357 -357 c196 -197 363 -372 372 -390 21
-42 20 -118 -3 -168 -24 -54 -87 -97 -150 -103 -96 -9 -97 -8 -488 381 l-363
361 -358 -356 c-239 -239 -369 -362 -394 -373 -110 -46 -232 10 -264 122 -8
29 -13 61 -11 70 3 10 8 32 12 48 5 22 104 127 373 398 l367 367 -363 363
c-330 330 -364 367 -377 412 -16 51 -12 101 11 146 18 36 79 87 112 95 15 3
32 7 37 9 19 6 32 5 81 -10z m989 -2581 c527 -92 940 -490 1052 -1014 13 -64
18 -129 18 -260 0 -252 -31 -384 -138 -594 -182 -357 -515 -605 -914 -682
-104 -20 -343 -23 -444 -5 -109 18 -238 59 -338 107 -629 297 -912 1021 -650
1663 79 192 188 345 347 484 166 145 380 251 587 291 44 8 89 17 100 19 53 12
297 6 380 -9z m1953 -269 c25 -11 155 -134 393 -371 235 -234 360 -353 370
-349 8 3 172 163 364 356 197 197 364 357 382 365 104 45 227 -14 259 -122 13
-47 13 -66 -3 -129 -3 -11 -170 -185 -371 -388 l-367 -367 357 -358 c196 -196
364 -373 374 -392 21 -41 23 -124 4 -161 -47 -91 -140 -133 -235 -104 -45 13
-82 47 -410 374 l-360 360 -365 -359 c-339 -334 -369 -361 -417 -376 -48 -14
-58 -14 -106 0 -56 16 -108 61 -126 109 -16 41 -13 112 4 155 11 25 133 154
373 395 l357 357 -357 358 c-196 196 -363 371 -372 389 -9 18 -16 56 -16 86 0
135 140 225 268 172z"/>
<path d="M7317 8320 c-311 -56 -581 -270 -693 -550 -49 -121 -66 -207 -67
-340 0 -78 6 -152 16 -196 76 -346 353 -623 698 -700 98 -22 291 -22 381 0
410 98 691 428 715 841 24 427 -258 810 -682 927 -80 22 -290 32 -368 18z"/>
<path d="M4430 5479 c-164 -19 -354 -102 -486 -215 -127 -108 -241 -291 -286
-459 -29 -109 -31 -337 -4 -439 89 -332 333 -580 661 -669 66 -18 106 -22 230
-21 133 1 160 4 239 28 325 99 549 332 638 664 26 98 29 293 5 398 -73 333
-337 607 -661 689 -109 27 -234 36 -336 24z"/>
</g>
</svg>
